<svg width="127" height="32" viewBox="0 0 127 32" fill="none" xmlns="http://www.w3.org/2000/svg">
<path d="M42.4355 9.31927V0.489253H45.7672C46.4498 0.489253 47.0224 0.607102 47.4851 0.842799C47.9508 1.0785 48.3022 1.40905 48.5393 1.83445C48.7793 2.25698 48.8994 2.74993 48.8994 3.31331C48.8994 3.87956 48.7779 4.37107 48.535 4.78785C48.2949 5.20176 47.9406 5.52225 47.4721 5.74932C47.0036 5.97352 46.4281 6.08562 45.7455 6.08562H43.3726V4.75767H45.5286C45.9277 4.75767 46.2546 4.70306 46.5091 4.59383C46.7636 4.48173 46.9515 4.31933 47.073 4.10663C47.1974 3.89105 47.2596 3.62661 47.2596 3.31331C47.2596 3 47.1974 2.73269 47.073 2.51136C46.9487 2.28716 46.7592 2.11758 46.5047 2.0026C46.2502 1.88475 45.922 1.82583 45.52 1.82583H44.045V9.31927H42.4355ZM47.0253 5.31817L49.2247 9.31927H47.4287L45.2683 5.31817H47.0253Z" fill="#1C1C1C"/>
<path d="M58.228 4.90426C58.228 5.85568 58.0487 6.67055 57.6901 7.3489C57.3344 8.02438 56.8485 8.54176 56.2325 8.90106C55.6193 9.26035 54.9238 9.44 54.1458 9.44C53.3679 9.44 52.6709 9.26035 52.0548 8.90106C51.4417 8.53889 50.9558 8.02006 50.5972 7.34459C50.2415 6.66624 50.0636 5.8528 50.0636 4.90426C50.0636 3.95285 50.2415 3.13941 50.5972 2.46394C50.9558 1.78559 51.4417 1.26677 52.0548 0.907472C52.6709 0.548177 53.3679 0.36853 54.1458 0.36853C54.9238 0.36853 55.6193 0.548177 56.2325 0.907472C56.8485 1.26677 57.3344 1.78559 57.6901 2.46394C58.0487 3.13941 58.228 3.95285 58.228 4.90426ZM56.6099 4.90426C56.6099 4.23454 56.5043 3.66973 56.2932 3.20983C56.085 2.74706 55.7958 2.39783 55.4256 2.16213C55.0554 1.92356 54.6288 1.80427 54.1458 1.80427C53.6628 1.80427 53.2363 1.92356 52.8661 2.16213C52.4959 2.39783 52.2052 2.74706 51.9941 3.20983C51.7859 3.66973 51.6818 4.23454 51.6818 4.90426C51.6818 5.57399 51.7859 6.14024 51.9941 6.60301C52.2052 7.0629 52.4959 7.41214 52.8661 7.65071C53.2363 7.88641 53.6628 8.00426 54.1458 8.00426C54.6288 8.00426 55.0554 7.88641 55.4256 7.65071C55.7958 7.41214 56.085 7.0629 56.2932 6.60301C56.5043 6.14024 56.6099 5.57399 56.6099 4.90426Z" fill="#1C1C1C"/>
<path d="M65.2585 0.489253H66.868V6.25808C66.868 6.89044 66.7176 7.44663 66.4168 7.92665C66.1189 8.40667 65.6996 8.78177 65.1587 9.05196C64.6179 9.31927 63.986 9.45293 63.263 9.45293C62.5371 9.45293 61.9037 9.31927 61.3629 9.05196C60.8221 8.78177 60.4027 8.40667 60.1048 7.92665C59.8069 7.44663 59.658 6.89044 59.658 6.25808V0.489253H61.2674V6.12443C61.2674 6.49234 61.3484 6.82002 61.5104 7.10746C61.6752 7.39489 61.9066 7.62053 62.2045 7.78437C62.5024 7.94533 62.8552 8.02581 63.263 8.02581C63.6708 8.02581 64.0236 7.94533 64.3215 7.78437C64.6223 7.62053 64.8536 7.39489 65.0156 7.10746C65.1775 6.82002 65.2585 6.49234 65.2585 6.12443V0.489253Z" fill="#1C1C1C"/>
<path d="M68.1353 1.83014V0.489253H75.2238V1.83014H72.4777V9.31927H70.8813V1.83014H68.1353Z" fill="#1C1C1C"/>
<path d="M76.4987 9.31927V0.489253H82.2771V1.83014H78.1081V4.22735H81.9777V5.56824H78.1081V7.97839H82.3118V9.31927H76.4987Z" fill="#1C1C1C"/>
<path d="M53.4512 20.2339C53.3807 19.9483 53.2695 19.6977 53.1177 19.4821C52.9658 19.2611 52.776 19.0752 52.5483 18.9243C52.326 18.768 52.0657 18.6521 51.7674 18.5767C51.4746 18.4958 51.1519 18.4554 50.7995 18.4554C50.0403 18.4554 49.3923 18.636 48.8554 18.997C48.324 19.3581 47.9173 19.8782 47.6353 20.5573C47.3588 21.2364 47.2205 22.0555 47.2205 23.0149C47.2205 23.985 47.3534 24.8149 47.6191 25.5048C47.8848 26.1946 48.2806 26.7228 48.8066 27.0893C49.3326 27.4557 49.9861 27.639 50.7669 27.639C51.4556 27.639 52.0277 27.5393 52.4832 27.3399C52.9441 27.1405 53.2885 26.8575 53.5162 26.491C53.744 26.1246 53.8579 25.6934 53.8579 25.1976L54.6387 25.2784H50.832V22.0771H58.2177V24.373C58.2177 25.882 57.895 27.1728 57.2497 28.2453C56.6099 29.3124 55.726 30.1316 54.5981 30.7029C53.4756 31.2688 52.1877 31.5517 50.7344 31.5517C49.113 31.5517 47.6896 31.2095 46.464 30.525C45.2385 29.8406 44.2814 28.8651 43.5927 27.5986C42.9095 26.332 42.5679 24.8257 42.5679 23.0795C42.5679 21.7106 42.7766 20.498 43.1942 19.4417C43.6171 18.3853 44.2028 17.4934 44.9511 16.7658C45.6995 16.0329 46.5644 15.4805 47.5459 15.1086C48.5274 14.7313 49.5794 14.5427 50.7019 14.5427C51.6888 14.5427 52.6052 14.6828 53.4512 14.9631C54.3025 15.2379 55.0536 15.6314 55.7043 16.1434C56.3604 16.65 56.8891 17.2509 57.2904 17.9461C57.6917 18.6413 57.9357 19.4039 58.0225 20.2339H53.4512Z" fill="#1C1C1C"/>
<path d="M60.1546 31.3253V14.7691H72.1604V18.3907H64.6771V21.2364H71.5422V24.858H64.6771V27.7037H72.1279V31.3253H60.1546Z" fill="#1C1C1C"/>
<path d="M88.6451 14.7691V31.3253H84.8709L78.8517 22.6268H78.7541V31.3253H74.2316V14.7691H78.0708L83.9924 23.4352H84.1225V14.7691H88.6451Z" fill="#1C1C1C"/>
<path d="M95.135 14.7691V31.3253H90.6125V14.7691H95.135Z" fill="#1C1C1C"/>
<path d="M106.965 14.7691H111.487V25.3754C111.487 26.6365 111.184 27.7279 110.576 28.6495C109.975 29.5657 109.134 30.2744 108.055 30.7756C106.976 31.2714 105.723 31.5194 104.297 31.5194C102.86 31.5194 101.602 31.2714 100.523 30.7756C99.4437 30.2744 98.6032 29.5657 98.0013 28.6495C97.4048 27.7279 97.1065 26.6365 97.1065 25.3754V14.7691H101.629V24.9874C101.629 25.4994 101.743 25.9575 101.971 26.3617C102.198 26.7605 102.513 27.0731 102.914 27.2994C103.321 27.5258 103.782 27.639 104.297 27.639C104.818 27.639 105.278 27.5258 105.68 27.2994C106.081 27.0731 106.396 26.7605 106.623 26.3617C106.851 25.9575 106.965 25.4994 106.965 24.9874V14.7691Z" fill="#1C1C1C"/>
<path d="M122.445 19.9429C122.402 19.4039 122.198 18.9836 121.835 18.6818C121.477 18.38 120.932 18.2291 120.2 18.2291C119.734 18.2291 119.351 18.2856 119.053 18.3988C118.76 18.5066 118.543 18.6548 118.402 18.8434C118.261 19.0321 118.188 19.2477 118.183 19.4902C118.172 19.6896 118.207 19.8701 118.289 20.0318C118.375 20.1881 118.511 20.3309 118.695 20.4603C118.88 20.5842 119.116 20.6974 119.403 20.7998C119.69 20.9022 120.032 20.9938 120.428 21.0747L121.794 21.3657C122.716 21.5597 123.505 21.8157 124.161 22.1337C124.817 22.4517 125.354 22.8262 125.772 23.2574C126.189 23.6831 126.496 24.1628 126.691 24.6964C126.892 25.2299 126.995 25.812 127 26.4425C126.995 27.5312 126.721 28.4528 126.179 29.2073C125.636 29.9618 124.861 30.5358 123.852 30.9292C122.849 31.3226 121.642 31.5194 120.233 31.5194C118.785 31.5194 117.521 31.3065 116.442 30.8807C115.368 30.4549 114.533 29.8001 113.937 28.9163C113.346 28.027 113.048 26.8898 113.042 25.5048H117.337C117.364 26.0114 117.491 26.4371 117.719 26.7821C117.947 27.127 118.267 27.3884 118.679 27.5662C119.097 27.7441 119.593 27.833 120.167 27.833C120.65 27.833 121.054 27.7737 121.379 27.6551C121.705 27.5366 121.952 27.3722 122.12 27.162C122.288 26.9518 122.375 26.712 122.38 26.4425C122.375 26.1892 122.29 25.9683 122.128 25.7796C121.971 25.5856 121.71 25.4131 121.347 25.2622C120.984 25.106 120.493 24.9604 119.875 24.8257L118.215 24.47C116.74 24.152 115.577 23.6212 114.726 22.8774C113.88 22.1283 113.46 21.107 113.465 19.8135C113.46 18.7626 113.742 17.8437 114.311 17.0569C114.886 16.2646 115.68 15.6475 116.694 15.2056C117.714 14.7637 118.882 14.5427 120.2 14.5427C121.545 14.5427 122.708 14.7664 123.69 15.2137C124.671 15.661 125.427 16.2916 125.959 17.1054C126.496 17.9138 126.767 18.8596 126.772 19.9429H122.445Z" fill="#1C1C1C"/>
<path d="M15.7587 1.73488C16.8158 0.67782 17.3443 0.149292 18.0011 0.149292C18.6578 0.149292 19.1864 0.67782 20.2434 1.73488L29.97 11.4615C31.0271 12.5185 31.5556 13.0471 31.5556 13.7038C31.5556 14.3606 31.0271 14.8891 29.97 15.9462L28.4751 17.4411C27.4181 18.4981 26.8895 19.0267 26.2328 19.0267C25.576 19.0267 25.0475 18.4981 23.9904 17.4411L14.2638 7.71449C13.2068 6.65743 12.6782 6.12891 12.6782 5.47214C12.6782 4.81536 13.2068 4.28684 14.2638 3.22978L15.7587 1.73488Z" fill="url(#paint0_linear_21_2406)"/>
<path d="M3.64979 6.06988C4.70685 5.01282 5.23538 4.48429 5.89215 4.48429C6.54892 4.48429 7.07745 5.01282 8.1345 6.06988L25.6351 23.5704C26.6921 24.6275 27.2206 25.156 27.2206 25.8128C27.2206 26.4696 26.6921 26.9981 25.6351 28.0551L24.1401 29.55C23.0831 30.6071 22.5546 31.1356 21.8978 31.1356C21.241 31.1356 20.7125 30.6071 19.6554 29.55L2.15489 12.0495C1.09783 10.9924 0.569303 10.4639 0.569303 9.80714C0.569303 9.15037 1.09783 8.62184 2.15489 7.56478L3.64979 6.06988Z" fill="url(#paint1_linear_21_2406)"/>
<path d="M3.08049 21.9445C4.13754 20.8874 4.66607 20.3589 5.32284 20.3589C5.97961 20.3589 6.50814 20.8874 7.5652 21.9445L9.7606 24.1399C10.8177 25.197 11.3462 25.7255 11.3462 26.3823C11.3462 27.039 10.8177 27.5676 9.7606 28.6246L8.2657 30.1195C7.20864 31.1766 6.68011 31.7051 6.02334 31.7051C5.36657 31.7051 4.83804 31.1766 3.78099 30.1195L1.58558 27.9241C0.528528 26.8671 0 26.3385 0 25.6818C0 25.025 0.528528 24.4965 1.58558 23.4394L3.08049 21.9445Z" fill="url(#paint2_linear_21_2406)"/>
<defs>
<linearGradient id="paint0_linear_21_2406" x1="0.153232" y1="-13.1089" x2="31.3364" y2="58.2424" gradientUnits="userSpaceOnUse">
<stop stop-color="#FFB800"/>
<stop offset="1" stop-color="#C84528"/>
</linearGradient>
<linearGradient id="paint1_linear_21_2406" x1="0.153232" y1="-13.1089" x2="31.3364" y2="58.2424" gradientUnits="userSpaceOnUse">
<stop stop-color="#FFB800"/>
<stop offset="1" stop-color="#C84528"/>
</linearGradient>
<linearGradient id="paint2_linear_21_2406" x1="0.153232" y1="-13.1089" x2="31.3364" y2="58.2424" gradientUnits="userSpaceOnUse">
<stop stop-color="#FFB800"/>
<stop offset="1" stop-color="#C84528"/>
</linearGradient>
</defs>
</svg>
